# xmcd
#
# Track frame offsets:
#   150
#   19510
#   38055
#   52657
#   68007
#   87150
#   105585
#   118767
#   134645
#   148985
#   163950
#   181380
#
# Disc length: 2688 seconds
#
# Revision: 0
# Processed by: cddbd v1.4PL0 Copyright (c) Steve Scherf et al.
# Submitted via: uFREEDB 1.6.0
#
DISCID=a30a7e0c
DTITLE=Vic Bell - After The Hurricane
DYEAR=1900
DGENRE=Zydaco
TTITLE0=After The Huricane
TTITLE1=That Moon
TTITLE2=Don't Have To Take That Jazz From You
TTITLE3=Cajun Woman Blues
TTITLE4=Louisiana And You
TTITLE5=Drunk, Louad And Obnoxious
TTITLE6=Things We Feel Tonight
TTITLE7=Somewhere In Louisiana
TTITLE8=Afraid Of Aids
TTITLE9=Out On The Town
TTITLE10=The Baton Rouge Railroad Samba
TTITLE11=The Reason I Stayed  On The Job So Long
EXTD=
EXTT0=
EXTT1=
EXTT2=
EXTT3=
EXTT4=
EXTT5=
EXTT6=
EXTT7=
EXTT8=
EXTT9=
EXTT10=
EXTT11=
PLAYORDER=
